<?xml version="1.0" encoding="UTF-8" standalone="no"?>
<!-- Created with Inkscape (http://www.inkscape.org/) -->

<svg
   version="1.1"
   id="svg2"
   width="624.49335"
   height="111.37333"
   viewBox="0 0 624.49335 111.37333"
   sodipodi:docname="Horizontal Logo CYOBot-solid white.eps"
   xmlns:inkscape="http://www.inkscape.org/namespaces/inkscape"
   xmlns:sodipodi="http://sodipodi.sourceforge.net/DTD/sodipodi-0.dtd"
   xmlns="http://www.w3.org/2000/svg"
   xmlns:svg="http://www.w3.org/2000/svg">
   <defs
      id="defs6" />
   <sodipodi:namedview
      id="namedview4"
      pagecolor="#ffffff"
      bordercolor="#000000"
      borderopacity="0.25"
      inkscape:showpageshadow="2"
      inkscape:pageopacity="0.0"
      inkscape:pagecheckerboard="0"
      inkscape:deskcolor="#d1d1d1" />
   <g
      id="g8"
      inkscape:groupmode="layer"
      inkscape:label="ink_ext_XXXXXX"
      transform="matrix(1.3333333,0,0,-1.3333333,0,111.37333)">
      <g
         id="g10"
         transform="scale(0.1)">
         <path
            d="m 2052.76,191.629 c -43.1,0 -81.58,9.941 -115.44,29.883 -33.86,19.922 -60.49,47.07 -79.83,81.484 -19.39,34.387 -29.09,73.145 -29.09,116.277 0,43.657 9.45,82.711 28.24,117.098 18.83,34.391 44.51,61.543 77.01,81.484 32.45,19.922 69.98,29.868 112.58,29.868 32.75,0 63.05,-6.407 90.88,-19.243 27.83,-12.832 52.4,-32.074 73.7,-57.718 6.58,-7.66 8.89,-15.426 6.98,-23.336 -1.91,-7.914 -6.98,-14.899 -15.17,-20.875 -6.54,-4.922 -13.92,-6.551 -22.11,-4.922 -8.19,1.633 -15.27,6.004 -21.3,13.109 -29.99,33.285 -67.67,49.938 -112.98,49.938 -29.49,0 -55.56,-7.11 -78.22,-21.274 -22.65,-14.218 -40.24,-33.582 -52.79,-58.148 -12.56,-24.566 -18.85,-53.227 -18.85,-85.981 0,-31.675 6.54,-59.937 19.65,-84.753 13.11,-24.844 31.54,-44.356 55.25,-58.543 23.77,-14.219 50.95,-21.309 81.49,-21.309 20.75,0 39.44,2.742 56.12,8.191 16.62,5.45 31.49,13.645 44.61,24.571 7.08,5.996 14.62,9.414 22.55,10.246 7.89,0.801 15.12,-1.504 21.66,-6.953 7.12,-6.563 11.2,-13.946 12.3,-22.141 1.1,-8.184 -1.65,-15.547 -8.19,-22.098 -39.84,-36.574 -89.52,-54.855 -149.05,-54.855"
            style="fill:#ffffff;fill-opacity:1;fill-rule:nonzero;stroke:none"
            id="path12" />
         <path
            d="m 2419.63,0 c -4.36,0 -9.84,1.375 -16.37,4.08984 -20.2,9.29686 -25.67,23.76176 -16.38,43.41016 l 259.57,576.488 c 8.75,19.641 23.21,25.094 43.41,16.375 20.19,-8.187 25.93,-22.379 17.18,-42.578 L 2446.67,21.2969 C 2440.64,7.10938 2431.65,0 2419.63,0 Z m 93.34,211.27 c -9.28,-4.375 -17.73,-5.051 -25.37,-2.032 -7.68,2.989 -13.9,8.867 -18.84,17.606 L 2284.5,597.785 c -4.37,8.719 -4.92,17.059 -1.61,24.969 3.27,7.914 9.25,14.043 17.99,18.437 9.29,3.793 17.73,4.344 25.42,1.633 7.64,-2.738 13.61,-8.738 17.98,-18.011 l 179.35,-370.946 c 4.92,-8.742 6.53,-17.082 4.92,-24.992 -1.66,-7.91 -6.84,-13.789 -15.58,-17.605"
            style="fill:#ffffff;fill-opacity:1;fill-rule:nonzero;stroke:none"
            id="path14" />
         <path
            d="m 2975.66,254.668 c 30.54,0 57.81,7.09 81.88,21.309 24.02,14.187 42.7,33.699 56.07,58.543 13.36,24.816 20.04,53.078 20.04,84.753 0,31.649 -6.68,60.032 -20.04,85.149 -13.37,25.117 -32.05,44.762 -56.07,58.98 -24.07,14.164 -51.34,21.274 -81.88,21.274 -30.6,0 -57.88,-7.11 -81.89,-21.274 -24.07,-14.218 -43,-33.863 -56.92,-58.98 -13.92,-25.117 -20.9,-53.5 -20.9,-85.149 0,-31.675 6.98,-59.937 20.9,-84.753 13.92,-24.844 32.85,-44.356 56.92,-58.543 24.01,-14.219 51.29,-21.309 81.89,-21.309 z m 0,-63.039 c -44.27,0 -83.45,9.816 -117.56,29.484 -34.11,19.649 -60.99,46.668 -80.62,81.055 -19.65,34.395 -29.5,73.426 -29.5,117.105 0,44.207 9.85,83.52 29.5,117.903 19.63,34.414 46.51,61.418 80.62,81.086 34.11,19.636 73.29,29.461 117.56,29.461 43.65,0 82.38,-9.825 116.24,-29.461 33.86,-19.668 60.59,-46.672 80.28,-81.086 19.64,-34.383 29.74,-73.696 30.3,-117.903 0,-43.679 -9.86,-82.71 -29.5,-117.105 -19.63,-34.387 -46.57,-61.406 -80.68,-81.055 -34.11,-19.668 -72.99,-29.484 -116.64,-29.484"
            style="fill:#ffffff;fill-opacity:1;fill-rule:nonzero;stroke:none"
            id="path16" />
         <path
            d="m 3551.31,254.668 c 30.55,0 57.83,7.234 81.89,21.707 24.01,14.465 42.95,34.113 56.92,58.957 13.92,24.832 20.84,53.094 20.84,84.77 0,31.093 -6.92,59.203 -20.84,84.32 -13.97,25.117 -32.91,44.762 -56.92,58.98 -24.06,14.164 -51.34,21.274 -81.89,21.274 -29.49,0 -56.41,-7.11 -80.68,-21.274 -24.31,-14.218 -43.25,-33.863 -56.91,-58.98 -13.67,-25.117 -20.45,-53.227 -20.45,-84.32 0,-31.676 6.78,-59.938 20.45,-84.77 13.66,-24.844 32.6,-44.492 56.91,-58.957 24.27,-14.473 51.19,-21.707 80.68,-21.707 z m 0,-63.039 c -42.59,0 -80.83,9.941 -114.63,29.883 -33.86,19.922 -60.74,46.953 -80.69,81.054 -19.94,34.114 -30.18,72.473 -30.69,115.075 v 382.398 c 0,10.926 3.27,19.516 9.79,25.797 6.59,6.277 15.02,9.422 25.42,9.422 10.35,0 18.69,-3.145 24.97,-9.422 6.28,-6.281 9.4,-14.871 9.4,-25.797 V 565.84 c 18.58,24.558 42.29,44.355 71.23,59.375 28.94,14.996 60.89,22.508 95.86,22.508 41.44,0 78.56,-9.946 111.32,-29.868 32.75,-19.941 58.57,-47.093 77.41,-81.484 18.84,-34.387 28.23,-73.168 28.23,-116.269 0,-43.707 -9.94,-82.719 -29.88,-117.106 -19.95,-34.414 -46.97,-61.562 -81.09,-81.484 -34.11,-19.942 -72.99,-29.883 -116.65,-29.883"
            style="fill:#ffffff;fill-opacity:1;fill-rule:nonzero;stroke:none"
            id="path18" />
         <path
            d="m 4107.33,254.668 c 30.55,0 57.82,7.09 81.88,21.309 24.02,14.187 42.71,33.699 56.07,58.543 13.37,24.816 20.05,53.078 20.05,84.753 0,31.649 -6.68,60.032 -20.05,85.149 -13.36,25.117 -32.05,44.762 -56.07,58.98 -24.06,14.164 -51.33,21.274 -81.88,21.274 -30.6,0 -57.87,-7.11 -81.89,-21.274 -24.06,-14.218 -42.99,-33.863 -56.91,-58.98 -13.92,-25.117 -20.9,-53.5 -20.9,-85.149 0,-31.675 6.98,-59.937 20.9,-84.753 13.92,-24.844 32.85,-44.356 56.91,-58.543 24.02,-14.219 51.29,-21.309 81.89,-21.309 z m 0,-63.039 c -44.26,0 -83.44,9.816 -117.55,29.484 -34.11,19.649 -60.99,46.668 -80.63,81.055 -19.64,34.395 -29.49,73.426 -29.49,117.105 0,44.207 9.85,83.52 29.49,117.903 19.64,34.414 46.52,61.418 80.63,81.086 34.11,19.636 73.29,29.461 117.55,29.461 43.65,0 82.39,-9.825 116.25,-29.461 33.86,-19.668 60.59,-46.672 80.27,-81.086 19.65,-34.383 29.75,-73.696 30.3,-117.903 0,-43.679 -9.85,-82.71 -29.49,-117.105 -19.65,-34.387 -46.57,-61.406 -80.68,-81.055 -34.11,-19.668 -73,-29.484 -116.65,-29.484"
            style="fill:#ffffff;fill-opacity:1;fill-rule:nonzero;stroke:none"
            id="path20" />
         <path
            d="m 4628.08,195.723 c -28.38,0 -53.75,6.824 -76.16,20.468 -22.4,13.641 -39.98,32.481 -52.79,56.493 -12.87,24.035 -19.24,51.035 -19.24,81.074 v 397.148 c 0,10.379 3.11,18.84 9.39,25.399 6.28,6.554 14.62,9.816 24.96,9.816 9.86,0 18.04,-3.262 24.57,-9.816 6.59,-6.559 9.85,-15.02 9.85,-25.399 V 353.758 c 0,-25.664 7.49,-46.817 22.51,-63.465 15.02,-16.652 34,-24.973 56.91,-24.973 h 23.76 c 9.25,0 16.89,-3.261 22.91,-9.824 6.03,-6.551 9,-15.019 9,-25.391 0,-10.371 -3.68,-18.691 -11.06,-24.968 -7.33,-6.282 -16.78,-9.414 -28.23,-9.414 z m -196.52,371.769 c -9.3,0 -16.94,2.711 -22.91,8.192 -6.03,5.449 -9.05,12.535 -9.05,21.273 0,8.738 3.02,15.977 9.05,21.703 5.97,5.731 13.61,8.59 22.91,8.59 h 202.24 c 9.3,0 16.94,-2.859 22.96,-8.59 5.99,-5.726 9,-12.965 9,-21.703 0,-8.738 -3.01,-15.824 -9,-21.273 -6.02,-5.481 -13.66,-8.192 -22.96,-8.192 h -202.24"
            style="fill:#ffffff;fill-opacity:1;fill-rule:nonzero;stroke:none"
            id="path22" />
         <path
            d="m 1199.37,201.094 c -119.58,0 -216.534,96.941 -216.534,216.531 0,119.586 96.954,216.535 216.534,216.535 119.59,0 216.53,-96.949 216.53,-216.535 0,-119.59 -96.94,-216.531 -216.53,-216.531 z m -491.202,3.543 -245.941,425.976 h 491.878 z m -332.543,-3.543 c -119.586,0 -216.527,96.941 -216.527,216.531 0,119.586 96.941,216.535 216.527,216.535 0,-181.777 0,-318.117 0,-433.066 z M 0,826.93 V 8.32031 H 1547.86 V 826.93 H 0"
            style="fill:#ffffff;fill-opacity:1;fill-rule:nonzero;stroke:none"
            id="path24" />
      </g>
   </g>
</svg>